<svg version="1" xmlns="http://www.w3.org/2000/svg" width="933.333" height="933.333" viewBox="0 0 700.000000 700.000000"><path d="M325.5.6c-1.6.2-7.9.9-14 1.5-59.7 5.9-122.1 30.7-172 68.3-18.8 14.2-45.1 39.4-59.7 57.1-7.6 9.4-20.7 28.3-30.5 44.5C24 213.3 8.2 260.3 1.8 312.5c-2 16.6-1.7 63.6.6 79.5 3.8 27.5 7.3 42.4 15.6 67 11.7 34.9 22.3 56.3 44.5 89.9 15.9 24.1 44.1 54.5 69 74.4 62.2 49.8 138.5 76.6 217.6 76.7 72.9 0 142.6-21.9 201.8-63.5 5.9-4.1 11.6-8.3 12.7-9.3 1-1 5.1-4.5 8.9-7.7 13.8-11.6 23.9-21.2 33.8-32 9.8-10.7 22.6-26.2 26.1-31.7l1.8-2.7-9.5 3.9c-13.7 5.6-43.7 15.1-62.5 19.9-44.6 11.4-95.9 19-148.7 22.1-24.5 1.5-70.8 1.4-80.5 0-20-3.1-42.6-10.8-72.2-24.8-12.2-5.8-12.8-6.2-15.1-10.9-6.3-12.4-19.4-45-18.5-45.8.2-.2 5.7.3 12.3 1 37 4.1 66.1 5.5 110 5.6 53.5 0 87-2.2 134-8.7 88.2-12.1 155.7-34.1 195.8-63.8 5.2-3.8 6.9-5.8 7.7-8.5 3.3-12.5 6.1-25.5 7.9-37.7 1.2-7.6 2.7-17.1 3.4-20.9 1.6-9.3 1.5-58.9-.1-71.5-5.9-45.6-16.2-79.9-35.4-118.7l-7.1-14.2-7.6 3.9c-70.2 35.2-193.2 56.2-315.6 53.6-40.3-.8-75.5-3-75.5-4.7 0-1.6 15.2-24.6 23.3-35.4l8.3-11 47.5.3c53.9.4 82-.9 126.3-5.8 61.6-6.9 114.3-18.8 157.9-35.5 5.3-2.1 9.7-4.3 9.7-4.9 0-2.4-22.4-27.8-37.1-42.1-55-53.5-120.9-85.2-199.4-96-11.3-1.6-60.4-3-68-1.9zm-86.8 181c-.3.3-1.2.4-1.9.1-.8-.3-.5-.6.6-.6 1.1-.1 1.7.2 1.3.5zm9 1c-.3.3-1.2.4-1.9.1-.8-.3-.5-.6.6-.6 1.1-.1 1.7.2 1.3.5zm22.6 2.1c-.7.2-1.9.2-2.5 0-.7-.3-.2-.5 1.2-.5s1.9.2 1.3.5zm13.4.9c-.3.3-1.2.4-1.9.1-.8-.3-.5-.6.6-.6 1.1-.1 1.7.2 1.3.5zm-86 40c-.3.3-1.2.4-1.9.1-.8-.3-.5-.6.6-.6 1.1-.1 1.7.2 1.3.5zm13 2c-.3.3-1.2.4-1.9.1-.8-.3-.5-.6.6-.6 1.1-.1 1.7.2 1.3.5zm7 1c-.3.3-1.2.4-1.9.1-.8-.3-.5-.6.6-.6 1.1-.1 1.7.2 1.3.5zm16 2c-.3.3-1.2.4-1.9.1-.8-.3-.5-.6.6-.6 1.1-.1 1.7.2 1.3.5zm8.6 1.1c-.7.2-1.9.2-2.5 0-.7-.3-.2-.5 1.2-.5s1.9.2 1.3.5zm10 1c-.7.2-1.9.2-2.5 0-.7-.3-.2-.5 1.2-.5s1.9.2 1.3.5zm-62 329c-1.3.2-3.5.2-5 0-1.6-.2-.5-.4 2.2-.4 2.8 0 4 .2 2.8.4zm-3.3 25c0 .8-.9 0-5-4.5l-4.5-4.7 4.8 4.5c2.6 2.4 4.7 4.5 4.7 4.7zm48-5.2c1.9 1.9 3.2 3.5 2.9 3.5-.3 0-2-1.6-3.9-3.5s-3.2-3.5-2.9-3.5c.3 0 2 1.6 3.9 3.5zm9.7 22.2c-.3 1-.5.4-.5-1.2 0-1.7.2-2.4.5-1.8.2.7.2 2.1 0 3zm-9 6.9c-.3.3-1.2.4-1.9.1-.8-.3-.5-.6.6-.6 1.1-.1 1.7.2 1.3.5z"/></svg>